<mxfile host="Electron" agent="Mozilla/5.0 (Macintosh; Intel Mac OS X 10_15_7) AppleWebKit/537.36 (KHTML, like Gecko) draw.io/24.7.5 Chrome/126.0.6478.183 Electron/31.3.0 Safari/537.36" version="24.7.5">
  <diagram id="C5RBs43oDa-KdzZeNtuy" name="Page-1">
    <mxGraphModel dx="1114" dy="878" grid="1" gridSize="10" guides="1" tooltips="1" connect="1" arrows="1" fold="1" page="1" pageScale="1" pageWidth="827" pageHeight="1169" math="0" shadow="0">
      <root>
        <mxCell id="WIyWlLk6GJQsqaUBKTNV-0" />
        <mxCell id="WIyWlLk6GJQsqaUBKTNV-1" parent="WIyWlLk6GJQsqaUBKTNV-0" />
        <mxCell id="XmgOR0PQ7LE3FUmReLha-2" value="" style="edgeStyle=orthogonalEdgeStyle;rounded=0;orthogonalLoop=1;jettySize=auto;html=1;" edge="1" parent="WIyWlLk6GJQsqaUBKTNV-1" source="XmgOR0PQ7LE3FUmReLha-0" target="XmgOR0PQ7LE3FUmReLha-1">
          <mxGeometry relative="1" as="geometry" />
        </mxCell>
        <mxCell id="XmgOR0PQ7LE3FUmReLha-0" value="start" style="ellipse;whiteSpace=wrap;html=1;" vertex="1" parent="WIyWlLk6GJQsqaUBKTNV-1">
          <mxGeometry x="150" y="90" width="120" height="80" as="geometry" />
        </mxCell>
        <mxCell id="XmgOR0PQ7LE3FUmReLha-4" value="" style="edgeStyle=orthogonalEdgeStyle;rounded=0;orthogonalLoop=1;jettySize=auto;html=1;" edge="1" parent="WIyWlLk6GJQsqaUBKTNV-1" source="XmgOR0PQ7LE3FUmReLha-1" target="XmgOR0PQ7LE3FUmReLha-3">
          <mxGeometry relative="1" as="geometry" />
        </mxCell>
        <mxCell id="XmgOR0PQ7LE3FUmReLha-1" value="input customerLastName&lt;div&gt;input numberOfBathroomsToBeCleaned&lt;/div&gt;&lt;div&gt;input numberOfOtherRoomsToBeCleaned&lt;/div&gt;&lt;div&gt;&lt;br&gt;&lt;/div&gt;" style="shape=parallelogram;perimeter=parallelogramPerimeter;whiteSpace=wrap;html=1;fixedSize=1;" vertex="1" parent="WIyWlLk6GJQsqaUBKTNV-1">
          <mxGeometry x="82.5" y="200" width="255" height="90" as="geometry" />
        </mxCell>
        <mxCell id="XmgOR0PQ7LE3FUmReLha-6" value="" style="edgeStyle=orthogonalEdgeStyle;rounded=0;orthogonalLoop=1;jettySize=auto;html=1;" edge="1" parent="WIyWlLk6GJQsqaUBKTNV-1" source="XmgOR0PQ7LE3FUmReLha-3" target="XmgOR0PQ7LE3FUmReLha-5">
          <mxGeometry relative="1" as="geometry" />
        </mxCell>
        <mxCell id="XmgOR0PQ7LE3FUmReLha-3" value="costToCleanBathrooms = 15 * numberOfBathroomsToBeCleaned&lt;div&gt;costToCleanOtherRooms =&amp;nbsp;&lt;span style=&quot;background-color: initial;&quot;&gt;10 * numberOfOtherRoomsToBeCleaned&lt;/span&gt;&lt;/div&gt;&lt;div&gt;&lt;span style=&quot;background-color: initial;&quot;&gt;&lt;br&gt;&lt;/span&gt;&lt;/div&gt;&lt;div&gt;&lt;span style=&quot;background-color: initial;&quot;&gt;&amp;nbsp; totalS&lt;/span&gt;&lt;span style=&quot;background-color: initial;&quot;&gt;erviceCharge = 40 +&amp;nbsp;&lt;/span&gt;&lt;span style=&quot;background-color: initial;&quot;&gt;costToCleanBathrooms +&amp;nbsp;&lt;/span&gt;&lt;span style=&quot;background-color: initial;&quot;&gt;costToCleanOtherRooms&lt;/span&gt;&lt;/div&gt;&lt;div&gt;&lt;span style=&quot;background-color: initial;&quot;&gt;&lt;br&gt;&lt;/span&gt;&lt;/div&gt;" style="whiteSpace=wrap;html=1;" vertex="1" parent="WIyWlLk6GJQsqaUBKTNV-1">
          <mxGeometry x="17.5" y="330" width="385" height="100" as="geometry" />
        </mxCell>
        <mxCell id="XmgOR0PQ7LE3FUmReLha-9" value="" style="edgeStyle=orthogonalEdgeStyle;rounded=0;orthogonalLoop=1;jettySize=auto;html=1;" edge="1" parent="WIyWlLk6GJQsqaUBKTNV-1" source="XmgOR0PQ7LE3FUmReLha-5" target="XmgOR0PQ7LE3FUmReLha-8">
          <mxGeometry relative="1" as="geometry" />
        </mxCell>
        <mxCell id="XmgOR0PQ7LE3FUmReLha-5" value="output customerLastName&lt;div&gt;output&amp;nbsp;&lt;span style=&quot;background-color: initial;&quot;&gt;numberOfBathroomsToBeCleaned&lt;/span&gt;&lt;/div&gt;&lt;div&gt;&lt;span style=&quot;background-color: initial;&quot;&gt;output&amp;nbsp;&lt;/span&gt;&lt;span style=&quot;background-color: initial;&quot;&gt;costToCleanBathrooms&lt;/span&gt;&lt;/div&gt;&lt;div&gt;&lt;span style=&quot;background-color: initial;&quot;&gt;output&amp;nbsp;&lt;/span&gt;&lt;span style=&quot;background-color: initial;&quot;&gt;numberOfOtherRoomsToBeCleaned&lt;/span&gt;&lt;/div&gt;&lt;div&gt;&lt;span style=&quot;background-color: initial;&quot;&gt;output&amp;nbsp;&lt;/span&gt;&lt;span style=&quot;background-color: initial;&quot;&gt;costToCleanOtherRoom&lt;/span&gt;&lt;/div&gt;&lt;div&gt;&lt;span style=&quot;background-color: initial;&quot;&gt;output totalServiceCharge&lt;/span&gt;&lt;/div&gt;&lt;div&gt;&lt;span style=&quot;background-color: initial;&quot;&gt;&lt;br&gt;&lt;/span&gt;&lt;/div&gt;" style="shape=parallelogram;perimeter=parallelogramPerimeter;whiteSpace=wrap;html=1;fixedSize=1;" vertex="1" parent="WIyWlLk6GJQsqaUBKTNV-1">
          <mxGeometry x="65" y="470" width="290" height="120" as="geometry" />
        </mxCell>
        <mxCell id="XmgOR0PQ7LE3FUmReLha-8" value="end" style="ellipse;whiteSpace=wrap;html=1;" vertex="1" parent="WIyWlLk6GJQsqaUBKTNV-1">
          <mxGeometry x="150" y="630" width="120" height="80" as="geometry" />
        </mxCell>
      </root>
    </mxGraphModel>
  </diagram>
</mxfile>
